<svg width="114" height="29" viewBox="0 0 114 29" fill="none" xmlns="http://www.w3.org/2000/svg">
<path d="M8.216 22.182C6.88133 22.182 5.68533 21.9653 4.628 21.532C3.57067 21.0987 2.72133 20.4573 2.08 19.608C1.456 18.7587 1.12667 17.736 1.092 16.54H5.824C5.89333 17.216 6.12733 17.736 6.526 18.1C6.92467 18.4467 7.44467 18.62 8.086 18.62C8.74467 18.62 9.26467 18.4727 9.646 18.178C10.0273 17.866 10.218 17.4413 10.218 16.904C10.218 16.4533 10.062 16.0807 9.75 15.786C9.45533 15.4913 9.08267 15.2487 8.632 15.058C8.19867 14.8673 7.57467 14.6507 6.76 14.408C5.58133 14.044 4.61933 13.68 3.874 13.316C3.12867 12.952 2.48733 12.4147 1.95 11.704C1.41267 10.9933 1.144 10.066 1.144 8.922C1.144 7.22333 1.75933 5.89733 2.99 4.944C4.22067 3.97333 5.824 3.488 7.8 3.488C9.81067 3.488 11.4313 3.97333 12.662 4.944C13.8927 5.89733 14.5513 7.232 14.638 8.948H9.828C9.79333 8.35867 9.57667 7.89933 9.178 7.57C8.77933 7.22333 8.268 7.05 7.644 7.05C7.10667 7.05 6.67333 7.19733 6.344 7.492C6.01467 7.76933 5.85 8.17667 5.85 8.714C5.85 9.30333 6.12733 9.76267 6.682 10.092C7.23667 10.4213 8.10333 10.7767 9.282 11.158C10.4607 11.5567 11.414 11.938 12.142 12.302C12.8873 12.666 13.5287 13.1947 14.066 13.888C14.6033 14.5813 14.872 15.474 14.872 16.566C14.872 17.606 14.6033 18.5507 14.066 19.4C13.546 20.2493 12.7833 20.9253 11.778 21.428C10.7727 21.9307 9.58533 22.182 8.216 22.182ZM38.4341 7.492L34.5081 22H29.5941L27.3061 12.588L24.9401 22H20.0521L16.1001 7.492H20.5461L22.6001 17.866L25.0441 7.492H29.7501L32.2201 17.814L34.2481 7.492H38.4341ZM42.3656 5.984C41.5856 5.984 40.9442 5.75867 40.4416 5.308C39.9562 4.84 39.7136 4.268 39.7136 3.592C39.7136 2.89867 39.9562 2.32667 40.4416 1.876C40.9442 1.408 41.5856 1.174 42.3656 1.174C43.1282 1.174 43.7522 1.408 44.2376 1.876C44.7402 2.32667 44.9916 2.89867 44.9916 3.592C44.9916 4.268 44.7402 4.84 44.2376 5.308C43.7522 5.75867 43.1282 5.984 42.3656 5.984ZM44.5756 7.492V22H40.1296V7.492H44.5756ZM55.0775 11.184H52.6855V22H48.2395V11.184H46.6275V7.492H48.2395V7.076C48.2395 5.29067 48.7509 3.93867 49.7735 3.02C50.7962 2.084 52.2955 1.616 54.2715 1.616C54.6009 1.616 54.8435 1.62467 54.9995 1.642V5.412C54.1502 5.36 53.5522 5.48133 53.2055 5.776C52.8589 6.07067 52.6855 6.59933 52.6855 7.362V7.492H55.0775V11.184ZM65.2527 18.23V22H62.9907C61.3787 22 60.122 21.61 59.2207 20.83C58.3194 20.0327 57.8687 18.7413 57.8687 16.956V11.184H56.1007V7.492H57.8687V3.956H62.3147V7.492H65.2267V11.184H62.3147V17.008C62.3147 17.4413 62.4187 17.7533 62.6267 17.944C62.8347 18.1347 63.1814 18.23 63.6667 18.23H65.2527ZM80.2352 9.182C80.2352 10.69 79.7152 11.9467 78.6752 12.952C77.6525 13.94 76.0839 14.434 73.9692 14.434H70.4852V22H68.1192V3.878H73.9692C76.0145 3.878 77.5659 4.372 78.6232 5.36C79.6979 6.348 80.2352 7.622 80.2352 9.182ZM73.9692 12.484C75.2865 12.484 76.2572 12.198 76.8812 11.626C77.5052 11.054 77.8172 10.2393 77.8172 9.182C77.8172 6.946 76.5345 5.828 73.9692 5.828H70.4852V12.484H73.9692ZM82.2918 14.824C82.2918 13.368 82.5865 12.094 83.1758 11.002C83.7652 9.89267 84.5712 9.03467 85.5938 8.428C86.6338 7.82133 87.7865 7.518 89.0518 7.518C90.2998 7.518 91.3832 7.78667 92.3018 8.324C93.2205 8.86133 93.9052 9.53733 94.3558 10.352V7.752H96.7478V22H94.3558V19.348C93.8878 20.18 93.1858 20.8733 92.2498 21.428C91.3312 21.9653 90.2565 22.234 89.0258 22.234C87.7605 22.234 86.6165 21.922 85.5938 21.298C84.5712 20.674 83.7652 19.7987 83.1758 18.672C82.5865 17.5453 82.2918 16.2627 82.2918 14.824ZM94.3558 14.85C94.3558 13.7753 94.1392 12.8393 93.7058 12.042C93.2725 11.2447 92.6832 10.638 91.9378 10.222C91.2098 9.78867 90.4038 9.572 89.5198 9.572C88.6358 9.572 87.8298 9.78 87.1018 10.196C86.3738 10.612 85.7932 11.2187 85.3598 12.016C84.9265 12.8133 84.7098 13.7493 84.7098 14.824C84.7098 15.916 84.9265 16.8693 85.3598 17.684C85.7932 18.4813 86.3738 19.0967 87.1018 19.53C87.8298 19.946 88.6358 20.154 89.5198 20.154C90.4038 20.154 91.2098 19.946 91.9378 19.53C92.6832 19.0967 93.2725 18.4813 93.7058 17.684C94.1392 16.8693 94.3558 15.9247 94.3558 14.85ZM113.018 7.752L104.438 28.708H101.994L104.802 21.844L99.0561 7.752H101.682L106.154 19.296L110.574 7.752H113.018Z" fill="#2B3674"/>
</svg>
