<svg width="24" height="24" viewBox="0 0 24 24" fill="none" xmlns="http://www.w3.org/2000/svg">
<path d="M15.783 17.5887C16.3741 18.1954 17.1197 18.5859 17.9294 18.7251L14.181 22.5722C12.9755 23.8094 11.0106 23.8094 9.80516 22.5722L6.10096 18.7704C6.99262 18.6671 7.81795 18.263 8.46062 17.6034L12.0222 13.948C12.0372 13.9326 12.0731 13.9119 12.129 13.9119C12.1848 13.9119 12.2207 13.9326 12.2357 13.948L15.783 17.5887Z" stroke="#4318FF"/>
<path d="M12.2509 10.0404L12.2502 10.0411C12.189 10.1039 12.0976 10.1039 12.0363 10.0411L8.47474 6.38952C7.82914 5.72759 6.99931 5.32331 6.10316 5.22238L9.80498 1.427C11.0105 0.190999 12.9757 0.190999 14.1812 1.427L17.9328 5.27346C17.1333 5.41611 16.3973 5.80414 15.8124 6.40358C15.8122 6.40378 15.812 6.40398 15.8118 6.40419L12.2509 10.0404Z" stroke="#4318FF"/>
<path d="M17.3266 7.52236L17.3266 7.5224L17.332 7.51657C17.6857 7.13149 18.1895 6.91416 18.7029 6.91416H19.9638C19.974 6.91416 19.9843 6.914 19.9948 6.91368L22.572 9.63141C23.8093 10.9362 23.8093 13.0639 22.572 14.3688L19.9948 17.0865C19.9846 17.0862 19.9742 17.086 19.9638 17.086H18.7029C18.2069 17.086 17.6991 16.8706 17.3266 16.4778L13.7324 12.6876C12.883 11.792 11.4068 11.792 10.5575 12.6876L6.94878 16.4931L6.94874 16.4931L6.94338 16.4989C6.58962 16.884 6.0859 17.1013 5.57246 17.1013H4.02174C4.01611 17.1013 4.0105 17.1013 4.00491 17.1014L1.42803 14.384C0.190658 13.0792 0.190658 10.9362 1.42803 9.63141L4.01941 6.89873C4.02499 6.89883 4.0306 6.89888 4.03623 6.89888H5.58696C6.08294 6.89888 6.59079 7.11428 6.96328 7.50707L10.572 11.3125C10.9976 11.7614 11.5627 12.0034 12.1522 12.0034C12.7249 12.0034 13.3051 11.7631 13.7324 11.3125L17.3266 7.52236Z" stroke="#4318FF"/>
</svg>
