<svg width="24" height="24" viewBox="0 0 24 24" fill="none" xmlns="http://www.w3.org/2000/svg">
<path d="M20.7923 9.52343C21.5824 10.3135 21.5824 11.5944 20.7923 12.3844C20.0023 13.1744 18.7214 13.1744 17.9314 12.3844C17.1414 11.5944 17.1414 10.3135 17.9314 9.52343C18.7214 8.7334 20.0023 8.7334 20.7923 9.52343" stroke="#A3AED0" stroke-width="1.5" stroke-linecap="round" stroke-linejoin="round"/>
<path d="M14.2024 5.91236C15.4189 7.12884 15.4189 9.10115 14.2024 10.3176C12.9859 11.5341 11.0136 11.5341 9.79713 10.3176C8.58065 9.10116 8.58065 7.12885 9.79713 5.91236C11.0136 4.69588 12.9859 4.69588 14.2024 5.91236" stroke="#A3AED0" stroke-width="1.5" stroke-linecap="round" stroke-linejoin="round"/>
<path d="M6.06871 9.52343C6.85874 10.3135 6.85874 11.5944 6.06871 12.3844C5.27868 13.1744 3.99779 13.1744 3.20776 12.3844C2.41773 11.5944 2.41773 10.3135 3.20776 9.52343C3.99779 8.7334 5.27868 8.7334 6.06871 9.52343" stroke="#A3AED0" stroke-width="1.5" stroke-linecap="round" stroke-linejoin="round"/>
<path d="M23.0002 19.0001V17.9041C23.0002 16.5231 21.8812 15.4041 20.5002 15.4041H19.6992" stroke="#A3AED0" stroke-width="1.5" stroke-linecap="round" stroke-linejoin="round"/>
<path d="M1 19.0001V17.9041C1 16.5231 2.119 15.4041 3.5 15.4041H4.301" stroke="#A3AED0" stroke-width="1.5" stroke-linecap="round" stroke-linejoin="round"/>
<path d="M17.3392 18.9999V17.3989C17.3392 15.4659 15.7722 13.8989 13.8392 13.8989H10.1602C8.22716 13.8989 6.66016 15.4659 6.66016 17.3989V18.9999" stroke="#A3AED0" stroke-width="1.5" stroke-linecap="round" stroke-linejoin="round"/>
</svg>
