<svg xmlns="http://www.w3.org/2000/svg" xmlns:xlink="http://www.w3.org/1999/xlink" version="1.1" x="0px" y="0px" viewBox="0 0 24 30" style="enable-background:new 0 0 24 24;" xml:space="preserve"><g><g><g><g><path d="M18.5,24c-3.033,0-5.5-2.468-5.5-5.5s2.467-5.5,5.5-5.5s5.5,2.468,5.5,5.5S21.533,24,18.5,24z M18.5,14      c-2.481,0-4.5,2.019-4.5,4.5s2.019,4.5,4.5,4.5s4.5-2.019,4.5-4.5S20.981,14,18.5,14z"/></g><g><path d="M23.5,14c-0.104,0-0.209-0.032-0.299-0.1l-2-1.5c-0.221-0.166-0.266-0.479-0.1-0.7c0.166-0.22,0.48-0.266,0.7-0.101      l2,1.5c0.221,0.166,0.266,0.479,0.1,0.7C23.802,13.931,23.652,14,23.5,14z"/></g><g><path d="M13.5,14c-0.152,0-0.302-0.069-0.4-0.2c-0.166-0.221-0.121-0.534,0.1-0.7l2-1.5c0.221-0.166,0.534-0.12,0.7,0.101      c0.166,0.221,0.121,0.534-0.1,0.7l-2,1.5C13.71,13.968,13.605,14,13.5,14z"/></g><g><path d="M20.5,21c-0.128,0-0.256-0.049-0.354-0.146l-2-2C18.053,18.76,18,18.633,18,18.5v-3c0-0.276,0.224-0.5,0.5-0.5      s0.5,0.224,0.5,0.5v2.793l1.854,1.854c0.195,0.195,0.195,0.512,0,0.707C20.756,20.951,20.628,21,20.5,21z"/></g></g><g><path d="M13.605,24H0.5C0.224,24,0,23.776,0,23.5v-2.402c0-0.041,0.005-0.082,0.015-0.121c0.261-1.044,0.67-2.065,1.889-2.472     l4.438-1.479c1.043-0.436,1.531-2.162,1.636-2.817C7.213,13.506,6.5,12.449,6.5,11.5c0-0.354-0.105-0.5-0.161-0.527     c-0.156-0.039-0.244-0.138-0.304-0.287C5.981,10.549,5.5,9.322,5.5,8.5c0-0.041,0.005-0.082,0.015-0.121     C5.57,8.159,5.723,7.839,6,7.651V5c0-2.088,1.902-5,5-5c3.06,0,3.892,1.569,3.99,2.345C15.508,2.729,16,3.389,16,5v2.651     c0.277,0.188,0.43,0.508,0.485,0.728C16.495,8.418,16.5,8.459,16.5,8.5c0,0.822-0.481,2.049-0.536,2.186     c-0.103,0.256-0.396,0.38-0.65,0.278c-0.256-0.103-0.381-0.393-0.279-0.649c0.124-0.309,0.435-1.194,0.462-1.739     c-0.017-0.039-0.041-0.08-0.057-0.094C15.165,8.481,15,8.276,15,8V5c0-1.472-0.473-1.771-0.675-1.9     C14.204,3.022,14,2.894,13.97,2.619c-0.006-0.06,0.002-0.127,0.022-0.195C13.921,2.027,13.321,1,11,1C8.558,1,7,3.369,7,5v3     c0,0.276-0.224,0.5-0.5,0.5c0.024,0,0.015,0.034,0.002,0.072c0.023,0.466,0.253,1.179,0.397,1.57     C7.191,10.338,7.5,10.753,7.5,11.5c0,0.673,0.663,1.573,1.318,2.114C8.934,13.71,9,13.851,9,14c0,0.635-0.577,3.24-2.308,3.962     l-4.472,1.492C1.512,19.69,1.231,20.259,1,21.16V23h12.605c0.276,0,0.5,0.224,0.5,0.5S13.882,24,13.605,24z"/></g></g></g><text x="0" y="39" fill="#000000" font-size="5px" font-weight="bold" font-family="'Helvetica Neue', Helvetica, Arial-Unicode, Arial, Sans-serif">Created by icon 54</text><text x="0" y="44" fill="#000000" font-size="5px" font-weight="bold" font-family="'Helvetica Neue', Helvetica, Arial-Unicode, Arial, Sans-serif">from the Noun Project</text></svg>