<svg width="24" height="27" viewBox="0 0 24 27" fill="none" xmlns="http://www.w3.org/2000/svg">
<path d="M4.72024 17.7046L3.3085 19.2764C3.12158 19.4845 3.0166 19.7664 3.0166 20.0603V21.0761C3.0166 21.6892 3.46432 22.1863 4.0166 22.1863H4.93345C5.19916 22.1863 5.45394 22.0689 5.64156 21.86L7.04869 20.2933" stroke="#A3AED0" stroke-width="1.5" stroke-linecap="round" stroke-linejoin="round"/>
<path d="M4.72046 17.7045C4.37318 16.155 4.99959 14.5386 6.25174 13.7531C7.50389 12.9677 9.07419 13.2061 10.0904 14.3359C11.1067 15.4658 11.3192 17.2095 10.61 18.5986C9.9008 19.9877 8.44406 20.6809 7.04891 20.2932" stroke="#A3AED0" stroke-width="1.5" stroke-linecap="round" stroke-linejoin="round"/>
<path d="M7.86689 16.8572C7.86686 16.8878 7.84446 16.9127 7.81687 16.9126C7.78927 16.9126 7.7669 16.8878 7.76689 16.8571C7.76689 16.8265 7.78924 16.8016 7.81683 16.8016C7.83012 16.8016 7.84286 16.8074 7.85225 16.8179C7.86164 16.8283 7.86691 16.8425 7.86689 16.8572" stroke="#A3AED0" stroke-width="1.5" stroke-linecap="round" stroke-linejoin="round"/>
<path d="M12 22.2048H19C20.1046 22.2048 21 21.2107 21 19.9843V9.92552C21 8.69918 20.1046 7.70503 19 7.70503H12.5291C12.1981 7.70503 11.8886 7.52318 11.7024 7.21933L10.2974 4.92662C10.1111 4.62276 9.80157 4.4409 9.47054 4.44092H5C3.89543 4.44092 3 5.43506 3 6.6614V12.2126" stroke="#A3AED0" stroke-width="1.5" stroke-linecap="round" stroke-linejoin="round"/>
</svg>
