<svg width="24" height="24" viewBox="0 0 24 24" fill="none" xmlns="http://www.w3.org/2000/svg">
<path d="M8.92822 16L8.42822 20" stroke="#A3AED0" stroke-width="1.5" stroke-linecap="round" stroke-linejoin="round"/>
<path d="M20 9V5.428C20 4.08705 18.9129 3 17.572 3H5.428C4.08705 3 3 4.08705 3 5.428V13.572C3 14.9129 4.08705 16 5.428 16H12" stroke="#A3AED0" stroke-width="1.5" stroke-linecap="round" stroke-linejoin="round"/>
<path d="M6.92822 20H12.0002" stroke="#A3AED0" stroke-width="1.5" stroke-linecap="round" stroke-linejoin="round"/>
<rect x="15" y="16" width="7" height="5" rx="1.5" stroke="#A3AED0" stroke-width="1.5" stroke-linecap="round" stroke-linejoin="round"/>
<path d="M16.5 16V14.5C16.5 13.3954 17.3954 12.5 18.5 12.5V12.5C19.6046 12.5 20.5 13.3954 20.5 14.5V14.5V16" stroke="#A3AED0" stroke-width="1.5" stroke-linecap="round" stroke-linejoin="round"/>
<path d="M12 11.5H14" stroke="#A3AED0" stroke-width="1.5" stroke-linecap="round" stroke-linejoin="round"/>
<path d="M7.64648 11.8499L8.9827 10.6499" stroke="#A3AED0" stroke-width="1.5" stroke-linecap="round" stroke-linejoin="round"/>
<path d="M6.98256 11.2536L7.64634 11.85" stroke="#A3AED0" stroke-width="1.5" stroke-linecap="round" stroke-linejoin="round"/>
<path d="M12 7.5H16" stroke="#A3AED0" stroke-width="1.5" stroke-linecap="round" stroke-linejoin="round"/>
<path d="M7.64648 7.8499L8.9827 6.6499" stroke="#A3AED0" stroke-width="1.5" stroke-linecap="round" stroke-linejoin="round"/>
<path d="M6.98256 7.25356L7.64634 7.84996" stroke="#A3AED0" stroke-width="1.5" stroke-linecap="round" stroke-linejoin="round"/>
</svg>
