<svg width="24" height="27" viewBox="0 0 24 27" fill="none" xmlns="http://www.w3.org/2000/svg">
<path d="M17.0023 9.9907V7.76929H15.0015" stroke="#A3AED0" stroke-width="1.5" stroke-linecap="round" stroke-linejoin="round"/>
<path d="M9.99951 10.3084L11.286 8.87999L14.0012 11.1014L17.0024 7.76929" stroke="#A3AED0" stroke-width="1.5" stroke-linecap="round" stroke-linejoin="round"/>
<path d="M14.001 14.9889L17.0022 14.989" stroke="#A3AED0" stroke-width="1.5" stroke-linecap="round" stroke-linejoin="round"/>
<path d="M14.001 18.3209L17.0022 18.321" stroke="#A3AED0" stroke-width="1.5" stroke-linecap="round" stroke-linejoin="round"/>
<path d="M2.99658 15.1001V22.6529C2.99772 23.6341 4.78819 24.43 6.99825 24.43C9.20831 24.43 10.9988 23.6341 10.9999 22.6529V15.1001" stroke="#A3AED0" stroke-width="1.5" stroke-linecap="round" stroke-linejoin="round"/>
<path d="M10.9988 15.0999C10.9988 16.0811 9.20717 16.877 6.99711 16.877C4.78705 16.877 2.99658 16.0811 2.99658 15.0999C2.99658 14.1174 4.78933 13.3228 6.99825 13.3228C9.20717 13.3228 10.9988 14.1187 10.9999 15.0999" stroke="#A3AED0" stroke-width="1.5" stroke-linecap="round" stroke-linejoin="round"/>
<path d="M2.99707 18.8765C2.99707 19.8577 4.78754 20.6536 6.9976 20.6536C9.20766 20.6536 10.9993 19.8577 10.9993 18.8765" stroke="#A3AED0" stroke-width="1.5" stroke-linecap="round" stroke-linejoin="round"/>
<path d="M4.99707 9.99065V5.54783C4.99707 4.32098 5.89287 3.32642 6.9979 3.32642H19.0029C20.1079 3.32642 21.0037 4.32098 21.0037 5.54783V19.987C21.0037 21.2139 20.1079 22.2084 19.0029 22.2084H14.0008" stroke="#A3AED0" stroke-width="1.5" stroke-linecap="round" stroke-linejoin="round"/>
</svg>
