<svg width="24" height="24" viewBox="0 0 24 24" fill="none" xmlns="http://www.w3.org/2000/svg">
<path d="M4.5 9H3" stroke="#A3AED0" stroke-width="1.5" stroke-linecap="round" stroke-linejoin="round"/>
<path d="M4.5 15H3" stroke="#A3AED0" stroke-width="1.5" stroke-linecap="round" stroke-linejoin="round"/>
<path d="M4 12H2" stroke="#A3AED0" stroke-width="1.5" stroke-linecap="round" stroke-linejoin="round"/>
<path d="M5.63623 5.63606C8.21021 3.06208 12.0813 2.29207 15.4443 3.6851C18.8074 5.07813 21.0002 8.35986 21.0002 12C21.0002 15.6402 18.8074 18.9219 15.4443 20.3149C12.0813 21.708 8.21021 20.938 5.63623 18.364" stroke="#A3AED0" stroke-width="1.5" stroke-linecap="round" stroke-linejoin="round"/>
<rect x="8.5" y="11" width="7" height="5" rx="1.5" stroke="#A3AED0" stroke-width="1.5" stroke-linecap="round" stroke-linejoin="round"/>
<path d="M10 11V9.5C10 8.39543 10.8954 7.5 12 7.5V7.5C13.1046 7.5 14 8.39543 14 9.5V9.5V11" stroke="#A3AED0" stroke-width="1.5" stroke-linecap="round" stroke-linejoin="round"/>
</svg>
